# xmcd CD database file
#
# Track frame offsets:
#	150
#	1111
#	11240
#	15504
#	29335
#	44650
#	54803
#	64810
#	75227
#	76188
#	86317
#	90581
#	104412
#	119873
#	130026
#	140033
#
# Disc length: 2004 seconds
#
# Revision: 0
# Processed by: cddbd v1.5.2PL0 Copyright (c) Steve Scherf et al.
# Submitted via: jetAudio 7
#
DISCID=bf07d210
DTITLE=Pepper Coyote - Blast Radius
DYEAR=1900
DGENRE=Oldies
TTITLE0=BD Jingle
TTITLE1=Duck and Cover
TTITLE2=Duka Cola
TTITLE3=One Thing
TTITLE4=You'll Need a Duke
TTITLE5=Nuclear Love
TTITLE6=Ode to an Enderfang
TTITLE7=No Cock Like Horse Cock
TTITLE8=BD Jingle (Vintage)
TTITLE9=Duck and Cover (Vintage)
TTITLE10=Duka Cola (Vintage)
TTITLE11=One Thing (Vintage)
TTITLE12=You'll Need a Duke (Vintage)
TTITLE13=Nuclear Love (Vintage)
TTITLE14=Ode to an Enderfang (Vintage)
TTITLE15=No Cock Like Horse Cock (Vintage)
EXTD=
EXTT0=
EXTT1=
EXTT2=
EXTT3=
EXTT4=
EXTT5=
EXTT6=
EXTT7=
EXTT8=
EXTT9=
EXTT10=
EXTT11=
EXTT12=
EXTT13=
EXTT14=
EXTT15=
PLAYORDER=
